<svg xmlns="http://www.w3.org/2000/svg" width="200" height="124" viewBox="0 0 152.407 108">
  <rect fill="#016fd0" width="152.407" height="108" rx="8"/>
  <path fill="#fff" d="M47.5,54H42.3l-2.9,7-2.9-7H31.3v14.5l-6.5-14.5H19.5L12,68.5h5.2l1.5-3.5h8l1.5,3.5h9V58l3.5,10.5h4l3.5-10.5v10.5h4.8V54Zm-28,7.5l2.5-6,2.5,6Z"/>
  <path fill="#fff" d="M140.4,54h-8.5v14.5h8.5v-3.5h-4.5v-2.5h4.5v-3.5h-4.5V57.5h4.5V54Z"/>
  <path fill="#fff" d="M119.4,54l-4,5-4-5h-5.5l7,8.5-7,6h5.5l4-5,4,5h5.5l-7-6,7-8.5Z"/>
  <path fill="#fff" d="M96.4,54H87.9v14.5h4.5V64h4c3.5,0,6-2,6-5S99.9,54,96.4,54Zm0,6.5h-4v-3h4c1,0,1.5.5,1.5,1.5S97.4,60.5,96.4,60.5Z"/>
  <path fill="#fff" d="M76.4,54H67.9v14.5h8.5v-3.5h-4v-2.5h4v-3.5h-4V57.5h4.5V54Z"/>
  <path fill="#fff" d="M60.4,61.5c0-2-1.5-3.5-3.5-4l2.5-3.5H54.2l-2.5,3.5h-1V54H46.2v14.5h4.5V62h1l3,6.5h5.2l-3.5-6A3.9,3.9,0,0,0,60.4,61.5Zm-5,0c0,.5-.5,1-1,1h-3.5v-2h3.5C55,60.5,55.4,61,55.4,61.5Z"/>
</svg>
