<svg xmlns="http://www.w3.org/2000/svg" width="200" height="156" viewBox="0 0 780 500">
  <rect fill="#fff" width="780" height="500" rx="40"/>
  <path fill="#0079BE" d="M599.93 251.45c0-99.42-82.98-168.13-173.9-168.13h-78.24c-92.01 0-167.93 68.71-167.93 168.13 0 90.93 75.92 165.47 167.93 165.47h78.24c90.93 0 173.9-74.54 173.9-165.47z"/>
  <path fill="#fff" d="M348.28 97.43c-84.07 0-152.22 68.15-152.22 152.22s68.15 152.22 152.22 152.22 152.22-68.15 152.22-152.22S432.35 97.43 348.28 97.43zm-96.91 152.22c0-42.83 27.76-79.21 66.24-92.25v184.49c-38.48-13.04-66.24-49.41-66.24-92.24zm127.59 92.24V157.4c38.48 13.04 66.24 49.42 66.24 92.25s-27.76 79.21-66.24 92.24z"/>
</svg>
