<svg xmlns="http://www.w3.org/2000/svg" width="200" height="124" viewBox="0 0 152.407 108">
  <g>
    <rect fill="none" width="152.407" height="108"/>
    <g>
      <rect fill="#ff5f00" x="60.412" y="19.537" width="31.5" height="56.926"/>
      <path fill="#eb001b" d="M63.077,48a36.093,36.093,0,0,1,13.79-28.463,36.1,36.1,0,1,0,0,56.926A36.093,36.093,0,0,1,63.077,48Z"/>
      <path fill="#f79e1b" d="M134.693,48a36.1,36.1,0,0,1-58.39,28.463,36.1,36.1,0,0,0,0-56.926A36.1,36.1,0,0,1,134.693,48Z"/>
      <path fill="#f79e1b" d="M131.072,74.939v-1.169h.467v-.24h-1.19v.24h.467v1.169Zm2.31,0v-1.409h-.364l-.42.97-.42-.97h-.364v1.409h.258v-1.065l.394.912h.268l.394-.914v1.067Z"/>
    </g>
  </g>
</svg>
