<svg xmlns="http://www.w3.org/2000/svg" width="200" height="65" viewBox="0 0 1000 324">
  <path fill="#1434CB" d="M651.2 0.5L599.3 323.5H524.8L576.7 0.5H651.2ZM856.8 210.1L893.5 99.2L914.5 210.1H856.8ZM939.2 323.5H1000L947.5 0.5H883.8C869.3 0.5 857 8.8 851.3 21.8L736.5 323.5H815.8L831.5 280.3H928.8L939.2 323.5ZM742.5 220.3C742.8 127.3 615.3 122.3 616.3 81.3C616.5 68.8 628.5 55.5 654.8 52C667.8 50.3 704.3 49.3 746 68.8L763.3 8.3C742.8 0.8 716.3 -6.2 683.3 -6.2C608.8 -6.2 556.8 33.3 556.3 91.3C555.8 133.8 594.3 157.5 623.5 171.8C653.5 186.5 663.8 196.3 663.5 209.8C663 230.3 638.5 239.3 615.8 239.8C575.3 240.5 551.8 229.5 533.3 221L515.3 283.8C534 292.3 569.3 299.8 606 300.3C685.3 300.3 742.3 261.3 742.5 220.3ZM444.3 0.5L323.8 323.5H243.8L184.3 54.3C180.5 39.8 177.3 34.3 166 28C147.5 18 118.3 8.8 93 2.8L94.8 0.5H220.3C236.3 0.5 250.5 11.3 254.3 29.8L284.3 191.3L362.8 0.5H444.3Z"/>
</svg>
